<?xml version="1.0" standalone="no"?>
<!DOCTYPE svg PUBLIC "-//W3C//DTD SVG 20010904//EN"
 "http://www.w3.org/TR/2001/REC-SVG-20010904/DTD/svg10.dtd">
<svg version="1.0" xmlns="http://www.w3.org/2000/svg"
 width="577.000000pt" height="577.000000pt" viewBox="0 0 577.000000 577.000000"
 preserveAspectRatio="xMidYMid meet">
<metadata>
Created by potrace 1.14, written by Peter Selinger 2001-2017
</metadata>
<g transform="translate(0.000000,577.000000) scale(0.100000,-0.100000)"
fill="#000000" stroke="none">
<path d="M3020 5360 c-25 -4 -85 -13 -135 -20 -313 -42 -659 -178 -886 -347
-92 -69 -239 -213 -239 -234 0 -10 18 -42 40 -71 22 -29 40 -58 40 -64 0 -6
-19 -21 -42 -34 -70 -39 -217 -138 -291 -197 -307 -245 -558 -610 -746 -1086
-38 -95 -38 -106 -5 -132 l27 -21 -62 -93 c-186 -276 -292 -564 -352 -953 -13
-87 -18 -457 -6 -475 6 -10 47 -13 147 -13 76 0 141 -4 144 -9 4 -5 -1 -36 -9
-68 -49 -182 -84 -498 -85 -756 0 -91 4 -167 10 -178 10 -18 23 -19 218 -19
272 0 524 28 729 79 40 10 75 15 78 13 3 -3 5 -67 5 -142 0 -111 3 -140 15
-150 20 -17 402 -7 530 14 335 53 618 161 878 332 94 63 110 70 122 57 8 -8
15 -18 15 -23 0 -25 45 -16 164 32 278 111 586 287 776 444 157 129 311 308
424 490 90 146 73 137 155 81 83 -57 74 -60 175 53 162 183 297 425 382 690
13 41 28 89 33 105 60 189 99 588 77 770 -45 378 -163 685 -399 1047 -32 47
-57 92 -57 98 0 16 43 63 272 298 98 100 178 187 178 193 0 10 -143 150 -248
244 l-43 39 -212 -210 c-117 -115 -224 -220 -239 -233 l-26 -23 -59 39 c-327
220 -677 366 -988 412 -44 7 -107 16 -141 22 -71 11 -299 10 -364 -1z m-757
-1145 c183 -124 385 -217 577 -265 47 -11 90 -22 96 -25 8 -2 8 -18 -3 -57 -7
-29 -20 -86 -28 -127 -20 -100 -43 -123 -219 -210 -219 -108 -373 -158 -656
-212 -101 -20 -407 -17 -510 4 -114 23 -243 62 -247 73 -5 15 131 247 200 344
81 112 231 266 337 346 76 58 318 193 346 194 6 0 54 -29 107 -65z m577 -1218
c0 -75 4 -117 12 -125 8 -8 50 -12 125 -12 62 0 113 -2 113 -5 0 -2 -13 -33
-29 -67 -42 -92 -97 -264 -157 -488 -34 -125 -43 -132 -258 -225 -214 -93
-349 -134 -608 -184 -186 -37 -211 -38 -204 -13 2 9 7 37 11 62 36 271 117
540 242 802 73 152 64 144 187 168 119 24 415 127 515 180 20 11 39 19 44 20
4 0 7 -51 7 -113z m1085 -94 c67 -250 134 -402 255 -587 44 -67 80 -133 80
-145 0 -31 -81 -189 -143 -281 -70 -102 -290 -320 -407 -402 -107 -76 -301
-189 -326 -192 -19 -1 -33 32 -72 179 -24 93 -26 114 -27 320 0 146 5 243 14
290 37 192 99 381 177 540 54 111 132 257 143 268 8 8 242 63 278 66 7 1 19
-25 28 -56z m-2651 22 c83 -25 295 -65 347 -65 34 0 35 -8 10 -58 -19 -37 -61
-168 -141 -437 -23 -77 -46 -145 -52 -152 -11 -14 -195 -76 -291 -98 -76 -18
-340 -55 -346 -49 -10 10 34 219 70 329 48 145 116 288 199 415 66 101 98 140
113 140 5 0 46 -11 91 -25z m106 -1350 c0 -68 4 -135 10 -149 l10 -26 146 0
146 0 -6 -22 c-3 -13 -13 -61 -23 -108 -9 -47 -23 -93 -31 -102 -15 -18 -117
-55 -231 -83 -78 -20 -311 -55 -364 -55 l-39 0 7 68 c17 186 68 413 113 502
24 49 31 56 67 63 22 5 72 16 110 26 39 9 73 16 78 14 4 -3 7 -60 7 -128z
m1465 38 c13 -89 54 -288 69 -338 9 -27 16 -57 16 -66 0 -16 -76 -74 -180
-138 -162 -99 -370 -182 -540 -216 -47 -9 -102 -20 -123 -25 -20 -4 -39 -5
-42 -1 -6 10 11 167 30 276 26 149 81 321 111 346 8 7 72 27 142 45 149 38
309 90 419 138 43 18 81 32 84 30 4 -2 10 -25 14 -51z"/>
</g>
</svg>
